# xmcd CD Database Entry
#
# Track frame offsets:
# 182
# 88817
# 135805
# 163172
# 204000
# 268557
#
# Disc length: 3734 seconds
#
# Revision: 4
# Processed by: cddbd v1.4PL0 Copyright (c) Steve Scherf et al.
# Submitted via: tcd 2.0b
#
DISCID=440e9406
DTITLE=Piotr Ilijch Ciaikovskij - Sinfonia n. 4 - Ouverture 1812
DYEAR=1900
DGENRE=
TTITLE0=I Andante sostenuto
TTITLE1=II Andantatino in modo di canzona
TTITLE2=III Scherzo
TTITLE3=IV Finale
TTITLE4=Largo - Andante - Allergro giusto
TTITLE5=Largo - Allegro vivace
EXTD=Sofia Festival Orchestra, Julian Kovatchev
EXTT0=
EXTT1=
EXTT2=
EXTT3=
EXTT4=
EXTT5=
PLAYORDER=
